<svg xmlns="http://www.w3.org/2000/svg" width="256" height="256"><path fill-opacity=".016" d="M0 128.004v128.004l128.25-.254 128.25-.254.254-127.75L257.008 0H0v128.004m.485.496c0 70.4.119 99.053.265 63.672.146-35.38.146-92.98 0-128C.604 29.153.485 58.1.485 128.5" fill="#1976D2" fill-rule="evenodd"/><path fill-opacity=".044" d="M102 .912c-.825.437-3.075 1.547-5 2.467-1.925.919-4.345 3.122-5.378 4.896-1.761 3.023-4.27 7.449-8.916 15.725-1.08 1.925-3.646 6.65-5.702 10.5-2.056 3.85-5.726 10.375-8.156 14.5-2.429 4.125-5.216 9.075-6.193 11-2.977 5.868-12.497 23.007-13.608 24.5-.41.55-2.556 4.375-4.769 8.5-4.495 8.377-7.552 13.878-12.224 22-1.74 3.025-3.417 6.288-3.726 7.25-.309.963-.959 1.75-1.445 1.75-1.349 0-1.051 7.872.367 9.664 3.456 4.367 6.99 7.134 9.839 7.704 1.739.348 16.197.632 32.13.632h28.969l-.674 5.25c-.37 2.887-1.048 6.6-1.507 8.25-1.248 4.495-3.159 12.461-4.138 17.25a525.918 525.918 0 0 1-1.826 8.5 329.355 329.355 0 0 0-1.939 9.497c-.54 2.886-1.262 5.7-1.604 6.253-.342.553-1.067 3.367-1.612 6.253-2.1 11.123-2.796 14.459-4.329 20.747-2.628 10.782-3.717 18.33-3.112 21.564.316 1.685 2.153 4.594 4.082 6.464 3.134 3.038 4.101 3.401 9.061 3.401 5.422 0 5.675-.129 10.773-5.465 2.871-3.005 6.221-6.772 7.445-8.37 1.224-1.599 4.581-5.601 7.459-8.893 2.878-3.293 5.89-6.935 6.692-8.094.803-1.159 2.019-2.681 2.703-3.382.685-.701 2.953-3.401 5.041-6 2.089-2.599 4.05-4.95 4.36-5.225.309-.275 6.14-7.25 12.956-15.5 6.817-8.25 13.008-15.627 13.759-16.393.75-.766 3.896-4.591 6.99-8.5 3.093-3.909 5.904-7.332 6.245-7.607.342-.275 6.196-7.25 13.01-15.5s12.634-15.225 12.933-15.5c.299-.275 2.252-2.626 4.341-5.225 2.088-2.599 4.347-5.299 5.02-6 .673-.701 3.015-3.524 5.204-6.274 2.188-2.749 4.521-5.573 5.182-6.274.662-.702 2.878-3.319 4.923-5.816 6.991-8.531 5.163-20.065-3.661-23.105-2.336-.804-12.344-1.212-30.715-1.25-19.052-.039-27.25-.386-27.25-1.152 0-.602.616-2.29 1.37-3.75a492.33 492.33 0 0 0 3.506-7.011c1.176-2.396 2.791-5.546 3.589-7 5.277-9.604 20.534-42.062 20.531-43.676-.008-4.243-6.662-12.364-10.187-12.434-.93-.018-1.969-.483-2.309-1.033-.745-1.205-76.231-1.29-78.5-.088" fill="#1976D2" fill-rule="evenodd"/><path fill-opacity=".162" d="M100.258 3.705c-3.1.598-7.595 5.333-10.46 11.02-1.323 2.626-3.915 7.475-5.76 10.775-1.846 3.3-3.847 6.9-4.447 8-.6 1.1-1.316 2.225-1.591 2.5-.601.601-1.704 2.567-6.834 12.175-5.62 10.526-9.319 17.175-10.195 18.325-.419.55-2.008 3.25-3.531 6a2055.87 2055.87 0 0 1-4.734 8.5c-1.08 1.925-3.756 6.875-5.947 11-2.19 4.125-4.334 7.95-4.764 8.5-.798 1.02-2.146 3.393-7.954 14-1.807 3.3-3.68 6.428-4.163 6.95-.483.523-.878 3.762-.878 7.199 0 5.884.19 6.392 3.25 8.688 3.247 2.436 3.282 2.439 35.25 2.987 17.6.303 32.164.578 32.363.613.2.035.108 1.301-.205 2.813-1.678 8.117-2.614 12.417-4.078 18.75-.89 3.85-2.059 9.025-2.598 11.5-.539 2.475-1.656 7.425-2.482 11a1379.7 1379.7 0 0 0-2.602 11.5c-1.384 6.293-2.24 10.089-4.398 19.5-.946 4.125-2.077 9.075-2.514 11-3.79 16.707-3.634 19.851 1.203 24.169 2.684 2.396 4.035 2.831 8.788 2.831 6.161 0 7.471-.978 16.375-12.225 2.058-2.599 4.29-5.299 4.962-6 1.362-1.423 19.349-23.013 37.303-44.775 4.311-5.225 8.106-9.725 8.433-10 .327-.275 2.598-2.975 5.046-6 6.094-7.532 34.191-41.381 34.862-42 .298-.275 2.25-2.626 4.339-5.225 2.088-2.599 4.347-5.299 5.02-6 .673-.701 3.015-3.524 5.204-6.274 2.188-2.749 4.521-5.573 5.182-6.274 3.376-3.58 8.33-10.168 10.285-13.676 1.968-3.53 2.07-4.346.963-7.7-.681-2.064-2.553-5.012-4.16-6.552L221.87 78.5l-29.674-.216c-16.32-.119-29.804-.609-29.964-1.089-.16-.479 6.101-13.657 13.914-29.283 12.909-25.821 14.208-28.904 14.244-33.801.035-4.936-.25-5.631-3.388-8.25L183.576 3l-40.538.136c-22.296.075-41.547.331-42.78.569" fill="#1976D2" fill-rule="evenodd"/><path fill-opacity=".129" d="M165.921 60.852c-1.419 1.548-2.867 3.565-3.219 4.482-.351.916-1.103 1.666-1.671 1.666-.567 0-1.031.675-1.031 1.5s-.731 1.5-1.623 1.5c-.893 0-17.129 15.503-36.079 34.45L87.843 138.9l6.328.3 6.329.3.317 3.855c.174 2.121-.016 4.596-.423 5.5-1.292 2.874-3.665 13.035-6.282 26.892-.545 2.886-1.329 5.795-1.742 6.464-.732 1.183-1.687 5.592-3.205 14.793-.409 2.478-1.091 5.067-1.515 5.753-.424.687-1.214 3.61-1.754 6.496-.541 2.886-1.394 7.047-1.896 9.247s-1.344 6.25-1.871 9c-.526 2.75-1.446 6.267-2.043 7.815-1.522 3.946-1.297 10.823.43 13.105 3.933 5.198 10.099 6.865 15.35 4.149 1.521-.786 7.555-7.26 13.407-14.385s11.224-13.569 11.938-14.319c.714-.751 3.315-3.84 5.78-6.865 2.465-3.025 4.728-5.725 5.029-6 .301-.275 2.333-2.75 4.514-5.5s4.21-5.225 4.508-5.5c.298-.275 7.241-8.6 15.429-18.5s15.147-18.225 15.464-18.5c.317-.275 1.765-2.075 3.219-4 1.453-1.925 3.475-4.4 4.494-5.5 1.019-1.1 3.871-4.475 6.338-7.5 2.468-3.025 4.733-5.725 5.034-6 .301-.275 2.333-2.75 4.514-5.5s4.204-5.225 4.495-5.5c.565-.533 15.656-18.471 17.666-20.998.657-.826 3.018-3.742 5.247-6.481 6.6-8.108 6.61-15.875.026-20.332l-3.468-2.348-29.25.713c-24.563.598-29.259.49-29.308-.671-.031-.761-.226-2.977-.433-4.925-.306-2.878.031-3.72 1.802-4.5 1.197-.527 2.343-1.858 2.545-2.958.202-1.1.992-2.36 1.755-2.8.764-.44 1.389-1.64 1.389-2.666 0-1.027.563-2.094 1.25-2.372.688-.277.8-.531.25-.564-.55-.033-2.161 1.206-3.579 2.754M125.5 105c-17.594 17.6-31.46 32-30.815 32 .645 0 15.155-13.99 32.244-31.089C153.407 79.418 159.416 73 157.744 73c-.141 0-14.65 14.4-32.244 32" fill="#1976D2" fill-rule="evenodd"/></svg>